<svg width="22" height="22" viewBox="0 0 22 22" fill="none" xmlns="http://www.w3.org/2000/svg">
<path d="M19.9884 9.20472H19.25V9.16668H11V12.8333H16.1805C15.4247 14.9678 13.3939 16.5 11 16.5C7.9626 16.5 5.49998 14.0374 5.49998 11C5.49998 7.96264 7.9626 5.50001 11 5.50001C12.402 5.50001 13.6776 6.02893 14.6488 6.89288L17.2416 4.30009C15.6044 2.7743 13.4145 1.83334 11 1.83334C5.93769 1.83334 1.83331 5.93772 1.83331 11C1.83331 16.0623 5.93769 20.1667 11 20.1667C16.0623 20.1667 20.1666 16.0623 20.1666 11C20.1666 10.3854 20.1034 9.78543 19.9884 9.20472Z" fill="#FFC107"/>
<path d="M2.89026 6.73339L5.90197 8.94209C6.71688 6.92451 8.69047 5.50001 11 5.50001C12.4021 5.50001 13.6776 6.02893 14.6488 6.89288L17.2416 4.30009C15.6044 2.7743 13.4145 1.83334 11 1.83334C7.47909 1.83334 4.42568 3.82114 2.89026 6.73339Z" fill="#FF3D00"/>
<path d="M11 20.1667C13.3677 20.1667 15.5191 19.2606 17.1458 17.787L14.3087 15.3863C13.3574 16.1097 12.1951 16.501 11 16.5C8.61573 16.5 6.59127 14.9797 5.82861 12.8581L2.83936 15.1612C4.35644 18.1298 7.43736 20.1667 11 20.1667Z" fill="#4CAF50"/>
<path d="M19.9884 9.2047H19.25V9.16666H11V12.8333H16.1805C15.819 13.8492 15.1678 14.7369 14.3073 15.3867L14.3087 15.3858L17.1458 17.7865C16.945 17.9689 20.1667 15.5833 20.1667 11C20.1667 10.3854 20.1034 9.78541 19.9884 9.2047Z" fill="#1976D2"/>
</svg>
