<svg width="22" height="22" viewBox="0 0 22 22" fill="none" xmlns="http://www.w3.org/2000/svg">
<g clip-path="url(#clip0_30_51)">
<path d="M19.9375 0.515613H2.0625C1.65693 0.511485 1.26628 0.668417 0.976282 0.951974C0.686281 1.23553 0.520611 1.62255 0.515625 2.02811V19.9753C0.521513 20.3803 0.687579 20.7664 0.977482 21.0492C1.26739 21.332 1.65752 21.4885 2.0625 21.4844H19.9375C20.3431 21.4876 20.7335 21.3301 21.0233 21.0464C21.3132 20.7627 21.4789 20.3757 21.4844 19.9701V2.02296C21.4771 1.61858 21.3106 1.23341 21.0209 0.951154C20.7313 0.668899 20.3419 0.512378 19.9375 0.515613Z" fill="#0076B2"/>
<path d="M3.61969 8.37546H6.73235V18.3906H3.61969V8.37546ZM5.17688 3.39108C5.53389 3.39108 5.88287 3.49697 6.17969 3.69535C6.47651 3.89372 6.70782 4.17568 6.84436 4.50554C6.9809 4.83541 7.01654 5.19836 6.94676 5.54848C6.87699 5.8986 6.70494 6.22016 6.45238 6.47248C6.19982 6.72481 5.87809 6.89655 5.5279 6.96599C5.17771 7.03543 4.8148 6.99945 4.48506 6.86259C4.15533 6.72573 3.8736 6.49416 3.6755 6.19715C3.47741 5.90014 3.37185 5.55106 3.37219 5.19405C3.37265 4.71572 3.56299 4.25713 3.90138 3.91906C4.23978 3.58098 4.69855 3.39108 5.17688 3.39108ZM8.68485 8.37546H11.6686V9.75046H11.7098C12.1258 8.96327 13.1398 8.13311 14.6541 8.13311C17.8063 8.12624 18.3906 10.2008 18.3906 12.8906V18.3906H15.278V13.518C15.278 12.3578 15.2573 10.8642 13.6606 10.8642C12.0639 10.8642 11.7923 12.1292 11.7923 13.4423V18.3906H8.68485V8.37546Z" fill="white"/>
</g>
<defs>
<clipPath id="clip0_30_51">
<rect width="22" height="22" fill="white"/>
</clipPath>
</defs>
</svg>
